{"title":"Jugni (2016) 1080p x264 AC3 5.1 MSubs -DDR","uid":15711481,"size":3789212172,"categoryP":"video","categoryS":"hd___movies","magnet":"?xt=urn:btih:3abb71c41bf4399f9140a1329cd550aecc2789e6&amp;dn=Jugni+%282016%29+1080p+x264+AC3+5.1+MSubs+-DDR&amp;tr=udp%3A%2F%2Ftracker.leechers-paradise.org%3A6969&amp;tr=udp%3A%2F%2Fzer0day.ch%3A1337&amp;tr=udp%3A%2F%2Fopen.demonii.com%3A1337&amp;tr=udp%3A%2F%2Ftracker.coppersurfer.tk%3A6969&amp;tr=udp%3A%2F%2Fexodus.desync.com%3A6969","seeders":24,"leechers":19,"uploader":"SaM","files":4,"time":1472578492,"description":"** JUGNI **\r\n\r\n** 2016**\r\n** 1080p / x264 / AC3 5.1 **\r\n\r\n** English &amp; French Subtitle(s) **\r\n\r\n\r\n\r\n[ SCREENS ]\r\n \nhttp://extraimago.com/image/wqZz \nhttp://extraimago.com/image/wqZU \nhttp://extraimago.com/image/wqZM \nhttp://extraimago.com/image/wqZ9 \nhttp://extraimago.com/image/wqZ3 \nhttp://extraimago.com/image/wqZb \nhttp://extraimago.com/image/wqZh \nhttp://extraimago.com/image/wqZd \nhttp://extraimago.com/image/wqZI \nhttp://extraimago.com/image/wqZl \nhttp://extraimago.com/image/wqZi \nhttp://extraimago.com/image/wqZm \nhttp://extraimago.com/image/wqZZ \nhttp://extraimago.com/image/wqZK \nhttp://extraimago.com/image/wqZJ \nhttp://extraimago.com/image/wqZ0\r\n\r\n[ Info ]\r\nSource : DDR HDFury Netflix recording\r\nFile size : 3.49 GiB\r\nDuration : 1 h 47 min\r\nOverall bit rate : 4 643 kb/s\r\n\r\nVideo\r\nFormat : AVC\r\nFormat/Info : Advanced Video Codec\r\nFormat profile :   \r\nFormat settings, CABAC : Yes\r\nFormat settings, ReFrames : 5 frames\r\nCodec ID : V_MPEG4/ISO/AVC\r\nDuration : 1 h 47 min\r\nBit rate : 4 000 kb/s\r\nWidth : 1 920 pixels\r\nHeight : 816 pixels\r\nDisplay aspect ratio : 2.35:1\r\nFrame rate mode : Constant\r\nFrame rate : 24.000 FPS\r\nColor space : YUV\r\nChroma subsampling : 4:2:0\r\nBit depth : 8 bits\r\nScan type : Progressive\r\nBits/(Pixel*Frame) : 0.106\r\nStream size : 3.00 GiB (86%)\r\n\r\nFormat : AC-3\r\nFormat/Info : Audio Coding 3\r\nMode extension : CM (complete main)\r\nFormat settings, Endianness : Big\r\nCodec ID : A_AC3\r\nDuration : 1 h 47 min\r\nBit rate mode : Constant\r\nBit rate : 640 kb/s\r\nChannel(s) : 6 channels\r\nChannel positions : Front: L C R, Side: L R, LFE\r\nSampling rate : 48.0 kHz\r\nFrame rate : 31.250 FPS (1536 spf)\r\nCompression mode : Lossy\r\nDelay relative to video : 24 ms\r\nStream size : 492 MiB (14%)\r\nLanguage : Hindi\r\nDefault : Yes\r\nForced : No\r\n\r\n\r\n\r\nChapters = YES","torrent":{"xt":"urn:btih:3abb71c41bf4399f9140a1329cd550aecc2789e6","amp;dn":"Jugni+%282016%29+1080p+x264+AC3+5.1+MSubs+-DDR","amp;tr":["udp%3A%2F%2Ftracker.leechers-paradise.org%3A6969","udp%3A%2F%2Fzer0day.ch%3A1337","udp%3A%2F%2Fopen.demonii.com%3A1337","udp%3A%2F%2Ftracker.coppersurfer.tk%3A6969","udp%3A%2F%2Fexodus.desync.com%3A6969"],"infoHash":"3abb71c41bf4399f9140a1329cd550aecc2789e6","infoHashBuffer":{"type":"Buffer","data":[58,187,113,196,27,244,57,159,145,64,161,50,156,213,80,174,204,39,137,230]},"announce":[],"urlList":[]}}